<?xml version="1.0" encoding="UTF-8"?>
<svg id="a" xmlns="http://www.w3.org/2000/svg" width="1024" height="1024" xmlns:xlink="http://www.w3.org/1999/xlink"
  viewBox="0 0 1024 1024">
  <defs>
    <linearGradient id="b" x1="148.27" y1="608.27" x2="511.73" y2="971.73" gradientUnits="userSpaceOnUse">
      <stop offset="0" stop-color="#eb6f6a" />
      <stop offset="1" stop-color="#ce4446" />
    </linearGradient>
  </defs>
  <g>
    <path
      d="m30.85,721.67V219.56h199.15c36.84,0,67.56,5.56,92.16,16.68,24.6,11.12,43.02,26.34,55.27,45.66,12.24,19.32,18.37,41.56,18.37,66.72,0,19.77-3.93,37.01-11.79,51.73-7.87,14.72-18.59,26.74-32.18,36.06-13.6,9.32-29.04,16.01-46.33,20.05v5.05c18.87.67,36.67,6.01,53.41,16.01,16.73,10,30.33,23.93,40.77,41.78,10.45,17.86,15.67,39.15,15.67,63.86,0,26.51-6.52,50.21-19.55,71.1-13.03,20.89-32.3,37.35-57.79,49.37-25.5,12.02-57.23,18.03-95.2,18.03H30.85Zm102.78-291.15h81.21c14.6,0,27.74-2.64,39.43-7.92,11.68-5.28,20.84-12.81,27.46-22.58,6.62-9.77,9.94-21.4,9.94-34.88,0-18.2-6.46-33.02-19.38-44.48-12.92-11.46-31.4-17.19-55.43-17.19h-83.23v127.04Zm0,206.57h88.96c30.1,0,52.12-5.84,66.05-17.52,13.93-11.68,20.89-27.07,20.89-46.17,0-14.15-3.43-26.67-10.28-37.57-6.86-10.89-16.57-19.43-29.15-25.61-12.58-6.18-27.52-9.27-44.82-9.27h-91.66v136.14Z"
      style="stroke-width: 0px;" fill="context-fill" />
    <path
      d="m535.64,295.72c-15.28,0-28.31-5.05-39.09-15.16s-16.17-22.35-16.17-36.73,5.39-26.62,16.17-36.73,23.81-15.16,39.09-15.16,28.36,5.05,39.26,15.16c10.89,10.11,16.34,22.36,16.34,36.73s-5.45,26.62-16.34,36.73c-10.9,10.11-23.98,15.16-39.26,15.16Zm-50.55,425.94v-376.74h101.09v376.74h-101.09Z"
      style="stroke-width: 0px;" fill="context-fill" />
    <path
      d="m833.53,729.75c-32.8,0-61.67-8.26-86.6-24.77-24.94-16.51-44.48-39.43-58.63-68.74-14.15-29.32-21.23-62.96-21.23-100.93s7.08-72.62,21.23-101.94c14.15-29.32,33.7-52.23,58.63-68.74,24.94-16.51,53.8-24.77,86.6-24.77s61.38,8.26,86.44,24.77c25.05,16.51,44.65,39.43,58.8,68.74,14.15,29.32,21.23,63.3,21.23,101.94s-7.02,71.61-21.06,100.93c-14.04,29.32-33.59,52.23-58.63,68.74-25.05,16.51-53.97,24.77-86.77,24.77Zm0-41.45c25.83,0,47.74-6.96,65.71-20.89,17.97-13.93,31.62-32.46,40.94-55.6,9.32-23.14,13.99-48.64,13.99-76.49s-4.72-53.75-14.15-77c-9.44-23.25-23.14-41.9-41.11-55.94-17.98-14.04-39.76-21.06-65.37-21.06s-47.35,7.02-65.21,21.06c-17.86,14.04-31.51,32.69-40.94,55.94-9.44,23.25-14.15,48.92-14.15,77s4.66,53.36,13.99,76.49c9.32,23.14,22.91,41.67,40.77,55.6,17.86,13.93,39.71,20.89,65.54,20.89Z"
      style="stroke-width: 0px;" fill="context-fill" />
  </g>
  <path
    d="m23,759s162.63,88,308.66,75,159.31-34,154.88-58c-4.43-24-74.12-37-108.42-26s-54.21,35-34.3,58c19.91,23,120.59,41,194.71,38s98.46-25,98.46-25"
    style="fill: none; stroke: url(#b); stroke-linecap: round; stroke-linejoin: round; stroke-width: 36px;" />
</svg>